<?xml version="1.0" encoding="UTF-8" standalone="no"?>
<svg
   viewBox="0 0 18.935541 18"
   version="1.1"
   id="svg2"
   sodipodi:docname="bludgeoning.svg"
   width="18.935541"
   height="18"
   inkscape:version="1.4.2 (ebf0e940, 2025-05-08)"
   xmlns:inkscape="http://www.inkscape.org/namespaces/inkscape"
   xmlns:sodipodi="http://sodipodi.sourceforge.net/DTD/sodipodi-0.dtd"
   xmlns="http://www.w3.org/2000/svg"
   xmlns:svg="http://www.w3.org/2000/svg">
  <sodipodi:namedview
     id="namedview2"
     pagecolor="#ffffff"
     bordercolor="#000000"
     borderopacity="0.25"
     inkscape:showpageshadow="2"
     inkscape:pageopacity="0.0"
     inkscape:pagecheckerboard="0"
     inkscape:deskcolor="#d1d1d1"
     inkscape:zoom="41.6"
     inkscape:cx="10.012019"
     inkscape:cy="7.9927885"
     inkscape:window-width="976"
     inkscape:window-height="1186"
     inkscape:window-x="49"
     inkscape:window-y="25"
     inkscape:window-maximized="0"
     inkscape:current-layer="svg2" />
  <defs
     id="defs1">
    <style
       id="style1">.cls-1{fill:#231f20;}</style>
  </defs>
  <g
     id="g2"
     transform="translate(0,-2)">
    <path
       class="cls-1"
       d="m 18,2 h -6 c -1.1,0 -2,0.9 -2,2 v 2 c 0,0.74 0.4,1.39 1,1.73 V 18 c 0,1.1 0.9,2 2,2 1.1,0 2,-0.9 2,-2 V 7.73 C 15.6,7.39 16,6.74 16,6 V 4 c 4,-1.1 3.1,-2 2,-2 z m 0,4 H 12 V 4 h 6 z"
       id="path1" />
    <rect
       class="cls-1"
       x="0"
       y="9"
       width="8"
       height="2"
       id="rect1" />
    <rect
       class="cls-1"
       x="0"
       y="13"
       width="6"
       height="2"
       id="rect2" />
  </g>
</svg>
