<?xml version="1.0" encoding="UTF-8" standalone="no"?>
<svg
   viewBox="0 0 12 20"
   version="1.1"
   id="svg5"
   sodipodi:docname="cold.svg"
   width="12"
   height="20"
   inkscape:version="1.4.2 (ebf0e940, 2025-05-08)"
   xmlns:inkscape="http://www.inkscape.org/namespaces/inkscape"
   xmlns:sodipodi="http://sodipodi.sourceforge.net/DTD/sodipodi-0.dtd"
   xmlns="http://www.w3.org/2000/svg"
   xmlns:svg="http://www.w3.org/2000/svg">
  <sodipodi:namedview
     id="namedview5"
     pagecolor="#ffffff"
     bordercolor="#000000"
     borderopacity="0.25"
     inkscape:showpageshadow="2"
     inkscape:pageopacity="0.0"
     inkscape:pagecheckerboard="0"
     inkscape:deskcolor="#d1d1d1"
     inkscape:zoom="50.45"
     inkscape:cx="5.9960357"
     inkscape:cy="10"
     inkscape:window-width="976"
     inkscape:window-height="1186"
     inkscape:window-x="49"
     inkscape:window-y="25"
     inkscape:window-maximized="0"
     inkscape:current-layer="svg5" />
  <defs
     id="defs1">
    <style
       id="style1">.cls-1{fill:#231f20;}</style>
  </defs>
  <g
     id="g5"
     transform="translate(-2)">
    <!-- Main icicle/crystal body -->
    <path
       class="cls-1"
       d="m 8,0 -2,4 -2,2 1,2 -1,2 2,2 1,2 1,6 1,-6 1,-2 2,-2 -1,-2 1,-2 -2,-2 z"
       id="path1" />
    <!-- Snowflake crystal branches (top) -->
    <path
       class="cls-1"
       d="M 8,2 7,4 8,5 9,4 Z"
       id="path2" />
    <!-- Left ice shard -->
    <path
       class="cls-1"
       d="M 4,6 2,7 3,8 h 2 z"
       id="path3" />
    <!-- Right ice shard -->
    <path
       class="cls-1"
       d="m 12,6 2,1 -1,1 h -2 z"
       id="path4" />
    <!-- Small ice crystals for detail -->
    <polygon
       class="cls-1"
       points="6,11 7,10 6,9 5,10 "
       id="polygon4" />
    <polygon
       class="cls-1"
       points="10,11 9,10 10,9 11,10 "
       id="polygon5" />
  </g>
</svg>
