<svg xmlns="http://www.w3.org/2000/svg" viewBox="0 0 20 20"><defs><style>.cls-1{fill:#231f20;}</style></defs><g><polygon class="cls-1" points="10,0 11,3 14,1 13,5 17,4 13,8 17,9 13,8 14,12 10,10 11,14 10,10 9,14 10,10 6,12 7,8 3,9 7,8 3,5 7,4 6,1 9,3"/><rect class="cls-1" x="9" y="8" width="2" height="6"/><rect class="cls-1" x="6" y="9" width="8" height="2" transform="translate(-4.14 10) rotate(-45)"/><rect class="cls-1" x="6" y="9" width="8" height="2" transform="translate(10 -4.14) rotate(45)"/><polygon class="cls-1" points="10,14 9,17 6,15 7,19 3,18 7,20 10,20"/></g></svg>
