<?xml version="1.0" encoding="UTF-8" standalone="no"?>
<svg
   viewBox="0 0 16 17"
   version="1.1"
   id="svg1"
   sodipodi:docname="fire.svg"
   width="16"
   height="17"
   inkscape:version="1.4.2 (ebf0e940, 2025-05-08)"
   xmlns:inkscape="http://www.inkscape.org/namespaces/inkscape"
   xmlns:sodipodi="http://sodipodi.sourceforge.net/DTD/sodipodi-0.dtd"
   xmlns="http://www.w3.org/2000/svg"
   xmlns:svg="http://www.w3.org/2000/svg">
  <sodipodi:namedview
     id="namedview1"
     pagecolor="#ffffff"
     bordercolor="#000000"
     borderopacity="0.25"
     inkscape:showpageshadow="2"
     inkscape:pageopacity="0.0"
     inkscape:pagecheckerboard="0"
     inkscape:deskcolor="#d1d1d1"
     inkscape:zoom="50.45"
     inkscape:cx="7.9980178"
     inkscape:cy="9.9900892"
     inkscape:window-width="2392"
     inkscape:window-height="1197"
     inkscape:window-x="56"
     inkscape:window-y="41"
     inkscape:window-maximized="0"
     inkscape:current-layer="svg1" />
  <defs
     id="defs1">
    <style
       id="style1">.cls-1{fill:#231f20;}</style>
  </defs>
  <g
     id="g1">
    <path
       class="cls-1"
       d="M 8,0 C 6,2 4,4 4,7 c 0,3.31 2.69,6 6,6 0.55,0 1,-0.45 1,-1 0,-0.28 -0.11,-0.53 -0.29,-0.71 C 10.9,11.11 11,10.81 11,10.5 11,9.67 10.33,9 9.5,9 9.22,9 9,8.78 9,8.5 9,6.01 11,4 13,2 c 1,2 3,4 3,7 0,4.42 -3.58,8 -8,8 C 3.58,17 0,13.42 0,9 0,4.5 3.5,0 8,0 Z"
       id="path1" />
  </g>
</svg>
