<?xml version="1.0" encoding="UTF-8" standalone="no"?>
<svg
   viewBox="0 0 12 20"
   version="1.1"
   id="svg1"
   sodipodi:docname="necrotic.svg"
   width="12"
   height="20"
   inkscape:version="1.4.2 (ebf0e940, 2025-05-08)"
   xmlns:inkscape="http://www.inkscape.org/namespaces/inkscape"
   xmlns:sodipodi="http://sodipodi.sourceforge.net/DTD/sodipodi-0.dtd"
   xmlns="http://www.w3.org/2000/svg"
   xmlns:svg="http://www.w3.org/2000/svg">
  <sodipodi:namedview
     id="namedview1"
     pagecolor="#ffffff"
     bordercolor="#000000"
     borderopacity="0.25"
     inkscape:showpageshadow="2"
     inkscape:pageopacity="0.0"
     inkscape:pagecheckerboard="0"
     inkscape:deskcolor="#d1d1d1"
     inkscape:zoom="50.45"
     inkscape:cx="5.9960357"
     inkscape:cy="10"
     inkscape:window-width="976"
     inkscape:window-height="1186"
     inkscape:window-x="49"
     inkscape:window-y="25"
     inkscape:window-maximized="0"
     inkscape:current-layer="svg1" />
  <defs
     id="defs1">
    <style
       id="style1">.cls-1{fill:#231f20;}</style>
  </defs>
  <g
     id="g1"
     transform="translate(-2)">
    <path
       class="cls-1"
       d="M 14,4 C 14,1.79 12.21,0 10,0 H 6 C 3.79,0 2,1.79 2,4 v 6 c 0,1.86 1.28,3.41 3,3.86 V 20 h 6 v -6.14 c 1.72,-0.45 3,-2 3,-3.86 z M 5,5 C 4.45,5 4,4.55 4,4 4,3.45 4.45,3 5,3 5.55,3 6,3.45 6,4 6,4.55 5.55,5 5,5 Z m 6,0 c -0.55,0 -1,-0.45 -1,-1 0,-0.55 0.45,-1 1,-1 0.55,0 1,0.45 1,1 0,0.55 -0.45,1 -1,1 z m 0,4 H 5 V 7 h 6 z"
       id="path1" />
  </g>
</svg>
