<?xml version="1.0" encoding="UTF-8" standalone="no"?>
<svg
   viewBox="0 0 17.17 18.95"
   version="1.1"
   id="svg2"
   sodipodi:docname="piercing.svg"
   width="17.17"
   height="18.950001"
   inkscape:version="1.4.2 (ebf0e940, 2025-05-08)"
   xmlns:inkscape="http://www.inkscape.org/namespaces/inkscape"
   xmlns:sodipodi="http://sodipodi.sourceforge.net/DTD/sodipodi-0.dtd"
   xmlns="http://www.w3.org/2000/svg"
   xmlns:svg="http://www.w3.org/2000/svg">
  <sodipodi:namedview
     id="namedview2"
     pagecolor="#ffffff"
     bordercolor="#000000"
     borderopacity="0.25"
     inkscape:showpageshadow="2"
     inkscape:pageopacity="0.0"
     inkscape:pagecheckerboard="0"
     inkscape:deskcolor="#d1d1d1"
     inkscape:zoom="39.300897"
     inkscape:cx="13.116749"
     inkscape:cy="10.012494"
     inkscape:window-width="2064"
     inkscape:window-height="1266"
     inkscape:window-x="625"
     inkscape:window-y="164"
     inkscape:window-maximized="0"
     inkscape:current-layer="g2" />
  <defs
     id="defs1">
    <style
       id="style1">.cls-1{fill:#262324;}.cls-2{fill:#fff;}</style>
  </defs>
  <g
     id="g2"
     transform="translate(2.5190265)">
    <!-- Arrow head (pointed design) -->
    <polygon
       class="cls-1"
       points="6.26,18.95 6.26,13.8 9.98,17.48 7.76,12.45 13.07,15.17 10.63,9.48 13.07,3.78 7.76,6.5 9.98,1.47 6.26,5.16 6.26,0 1.73,9.48 "
       id="polygon1"
       transform="translate(-5.0634977)" />
    <!-- Arrow shaft -->
    <path
       class="cls-1"
       d="m 8.2465028,6.3 h 7.1100002 v 6.33 H 8.2465028 c -2.5900005,0 -8.50000046,-0.75 -11.1000004,-2.55 L -3.7434977,9.46 -2.8534976,8.84 C -0.25349766,7.04 5.6565023,6.29 8.2465028,6.29 Z"
       id="path1" />
    <!-- Arrow shaft outline -->
    <path
       class="cls-2"
       d="m 14.606503,7.06 v 4.83 H 8.2465028 C 5.6965023,11.89 -0.04349766,11.13 -2.4234976,9.48 -0.06349766,7.82 5.6865023,7.06 8.2465028,7.06 h 6.3600002 m 1.5,-1.5 H 8.2465028 c -2.6700005,0 -8.79000046,0.79 -11.5300004,2.68 l -1.7800001,1.24 1.7800001,1.23 c 2.72999994,1.89 8.8599999,2.68 11.5300004,2.68 h 7.8600002 z"
       id="path2" />
  </g>
</svg>
