<?xml version="1.0" encoding="UTF-8" standalone="no"?>
<svg
   viewBox="0 0 24 14"
   version="1.1"
   id="svg1"
   sodipodi:docname="psychic.svg"
   width="24"
   height="14"
   inkscape:version="1.4.2 (ebf0e940, 2025-05-08)"
   xmlns:inkscape="http://www.inkscape.org/namespaces/inkscape"
   xmlns:sodipodi="http://sodipodi.sourceforge.net/DTD/sodipodi-0.dtd"
   xmlns="http://www.w3.org/2000/svg"
   xmlns:svg="http://www.w3.org/2000/svg">
  <sodipodi:namedview
     id="namedview1"
     pagecolor="#ffffff"
     bordercolor="#000000"
     borderopacity="0.25"
     inkscape:showpageshadow="2"
     inkscape:pageopacity="0.0"
     inkscape:pagecheckerboard="0"
     inkscape:deskcolor="#d1d1d1"
     inkscape:zoom="41.6"
     inkscape:cx="12.007212"
     inkscape:cy="5.9975962"
     inkscape:window-width="976"
     inkscape:window-height="1186"
     inkscape:window-x="49"
     inkscape:window-y="25"
     inkscape:window-maximized="0"
     inkscape:current-layer="svg1" />
  <defs
     id="defs1">
    <style
       id="style1">.cls-1{fill:#231f20;}</style>
  </defs>
  <g
     id="g1"
     transform="translate(2,-2)">
    <path
       class="cls-1"
       d="m 18,2 c -2.21,0 -4,1.79 -4,4 0,0.74 0.2,1.43 0.55,2.02 L 10,12.59 5.45,8.02 C 5.8,7.43 6,6.74 6,6 6,3.79 4.21,2 2,2 c -2.21,0 -4,1.79 -4,4 0,2.21 1.79,4 4,4 0.74,0 1.43,-0.2 2.02,-0.55 L 9,14.41 V 16 h 2 V 14.41 L 15.98,9.45 C 16.57,9.8 17.26,10 18,10 20.21,10 22,8.21 22,6 22,3.79 20.21,2 18,2 Z M 2,8 C 1.45,8 1,7.55 1,7 1,6.45 1.45,6 2,6 2.55,6 3,6.45 3,7 3,7.55 2.55,8 2,8 Z m 16,0 c -0.55,0 -1,-0.45 -1,-1 0,-0.55 0.45,-1 1,-1 0.55,0 1,0.45 1,1 0,0.55 -0.45,1 -1,1 z"
       id="path1" />
  </g>
</svg>
