<svg xmlns="http://www.w3.org/2000/svg" viewBox="0 0 20 16"><defs><style>.cls-1{fill:#231f20;}</style></defs><g><path class="cls-1" d="M18,2c-2.21,0-4,1.79-4,4c0,0.74,0.2,1.43,0.55,2.02L10,12.59l-4.55-4.57C5.8,7.43,6,6.74,6,6c0-2.21-1.79-4-4-4S-2,3.79-2,6s1.79,4,4,4c0.74,0,1.43-0.2,2.02-0.55L9,14.41v1.59h2v-1.59l4.98-4.96C16.57,9.8,17.26,10,18,10c2.21,0,4-1.79,4-4S20.21,2,18,2z M2,8C1.45,8,1,7.55,1,7s0.45-1,1-1s1,0.45,1,1S2.55,8,2,8z M18,8c-0.55,0-1-0.45-1-1s0.45-1,1-1s1,0.45,1,1S18.55,8,18,8z"/></g></svg>
