<?xml version="1.0" encoding="UTF-8" standalone="no"?>
<!-- Created with Inkscape (http://www.inkscape.org/) -->

<svg
   width="700.67639"
   height="62.325214"
   viewBox="0 0 185.38729 16.490213"
   version="1.1"
   id="svg8"
   inkscape:version="1.4.2 (ebf0e940, 2025-05-08)"
   sodipodi:docname="divider2.svg"
   xmlns:inkscape="http://www.inkscape.org/namespaces/inkscape"
   xmlns:sodipodi="http://sodipodi.sourceforge.net/DTD/sodipodi-0.dtd"
   xmlns="http://www.w3.org/2000/svg"
   xmlns:svg="http://www.w3.org/2000/svg"
   xmlns:rdf="http://www.w3.org/1999/02/22-rdf-syntax-ns#"
   xmlns:cc="http://creativecommons.org/ns#"
   xmlns:dc="http://purl.org/dc/elements/1.1/">
  <defs
     id="defs2" />
  <sodipodi:namedview
     id="base"
     pagecolor="#ffffff"
     bordercolor="#666666"
     borderopacity="1.0"
     inkscape:pageopacity="0.0"
     inkscape:pageshadow="2"
     inkscape:zoom="0.88916068"
     inkscape:cx="736.08743"
     inkscape:cy="72.540319"
     inkscape:document-units="px"
     inkscape:current-layer="layer1"
     showgrid="false"
     inkscape:snap-global="false"
     units="px"
     inkscape:window-width="2288"
     inkscape:window-height="1214"
     inkscape:window-x="49"
     inkscape:window-y="25"
     inkscape:window-maximized="0"
     showguides="true"
     inkscape:guide-bbox="true"
     inkscape:showpageshadow="2"
     inkscape:pagecheckerboard="0"
     inkscape:deskcolor="#d1d1d1" />
  <metadata
     id="metadata5">
    <rdf:RDF>
      <cc:Work
         rdf:about="">
        <dc:format>image/svg+xml</dc:format>
        <dc:type
           rdf:resource="http://purl.org/dc/dcmitype/StillImage" />
        <dc:title />
      </cc:Work>
    </rdf:RDF>
  </metadata>
  <g
     inkscape:label="Layer 1"
     inkscape:groupmode="layer"
     id="layer1"
     transform="translate(-174.96324,-34.994747)">
    <path
       style="opacity:1;fill:#58170d;fill-opacity:1;stroke:none;stroke-width:0.3;stroke-linecap:round;stroke-linejoin:round;stroke-miterlimit:4;stroke-dasharray:none;stroke-dashoffset:254.835;stroke-opacity:1;paint-order:normal"
       d="m 267.60994,34.994747 c -0.2303,0 -0.4606,0.14936 -0.6372,0.44559 l -4.0153,6.72978 c -0.3532,0.59248 -0.3532,1.54664 0,2.13912 l 4.0153,6.731352 c 0.3529,0.592494 0.9213,0.592494 1.2746,0 l 4.0136,-6.731352 c 0.3535,-0.59248 0.3535,-1.54664 0,-2.13912 l -4.0136,-6.72978 c -0.1773,-0.29622 -0.4068,-0.44559 -0.6374,-0.44559 z m -85.1433,2.18354 c -1.0086,0.0138 -1.8769,0.4438 -2.2564,1.22575 -0.114,0.23462 -0.1754,0.48452 -0.1906,0.74052 v 0 c -0.062,1.10949 0.771,2.34111 2.1393,3.00494 0.8518,0.4134 2.4897,0.88575 3.9782,1.09097 -1.4887,0.20521 -3.1264,0.67754 -3.9782,1.09096 -1.684,0.816979 -2.5562,2.492752 -1.949,3.743874 0.607,1.251175 2.4644,1.603506 4.1482,0.786521 1.0097,-0.489875 2.7692,-1.793183 3.8847,-3.028723 1.5713,-1.760652 1.6995,-3.490962 0,-5.196382 -1.1159,-1.23259 -2.8684,-2.53062 -3.8751,-3.01919 -0.6315,-0.30639 -1.2868,-0.44746 -1.8919,-0.43924 z m 170.382,0 c -0.6053,-0.008 -1.2606,0.13287 -1.8919,0.43924 -1.0068,0.48857 -2.7592,1.7866 -3.8755,3.01919 -1.7055,1.70542 -1.5776,3.43573 0,5.196382 1.1159,1.23554 2.8754,2.538848 3.885,3.028723 1.6834,0.816985 3.5394,0.464654 4.1467,-0.786521 0.6071,-1.251122 -0.2652,-2.926895 -1.9489,-3.743874 -0.8518,-0.41342 -2.4882,-0.88575 -3.9771,-1.09096 1.4889,-0.20521 3.1253,-0.67757 3.9771,-1.09097 1.368,-0.66383 2.2006,-1.89545 2.139,-3.00494 v 0 c -0.022,-0.256 -0.077,-0.5059 -0.1907,-0.74052 -0.3794,-0.78195 -1.2477,-1.21204 -2.2563,-1.22575 z m -175.4845,3.66141 a 2.4003314,2.4003314 0 0 0 -2.4009,2.40077 2.4003314,2.4003314 0 0 0 2.4009,2.399182 2.4003314,2.4003314 0 0 0 2.4004,-2.399182 2.4003314,2.4003314 0 0 0 -2.4004,-2.40077 z m 180.5873,0 a 2.4003314,2.4003314 0 0 0 -2.4009,2.40077 2.4003314,2.4003314 0 0 0 2.4009,2.399182 2.4003314,2.4003314 0 0 0 2.3991,-2.399182 2.4003314,2.4003314 0 0 0 -2.3991,-2.40077 z m -164.4179,0.8658 a 1.5344249,1.5344249 0 1 0 0,3.06835 h 66.0273 a 1.5344249,1.5344249 0 1 0 0,-3.06835 z m 82.2206,0 a 1.5344249,1.5344249 0 1 0 0,3.06835 h 66.0275 a 1.5344249,1.5344249 0 1 0 0,-3.06835 z"
       id="rect1163"
       inkscape:connector-curvature="0" />
  </g>
</svg>
