<?xml version="1.0" encoding="UTF-8" standalone="no"?>
<!-- Created with Inkscape (http://www.inkscape.org/) -->

<svg
   width="777.17206"
   height="34.222717"
   viewBox="0 0 205.62677 9.054761"
   version="1.1"
   id="svg8"
   inkscape:version="1.4.2 (ebf0e940, 2025-05-08)"
   sodipodi:docname="divider3.svg"
   xmlns:inkscape="http://www.inkscape.org/namespaces/inkscape"
   xmlns:sodipodi="http://sodipodi.sourceforge.net/DTD/sodipodi-0.dtd"
   xmlns="http://www.w3.org/2000/svg"
   xmlns:svg="http://www.w3.org/2000/svg"
   xmlns:rdf="http://www.w3.org/1999/02/22-rdf-syntax-ns#"
   xmlns:cc="http://creativecommons.org/ns#"
   xmlns:dc="http://purl.org/dc/elements/1.1/">
  <defs
     id="defs2" />
  <sodipodi:namedview
     id="base"
     pagecolor="#ffffff"
     bordercolor="#666666"
     borderopacity="1.0"
     inkscape:pageopacity="0.0"
     inkscape:pageshadow="2"
     inkscape:zoom="0.878211"
     inkscape:cx="336.4795"
     inkscape:cy="-114.43719"
     inkscape:document-units="px"
     inkscape:current-layer="layer1"
     showgrid="false"
     inkscape:snap-global="false"
     units="px"
     inkscape:window-width="2216"
     inkscape:window-height="1098"
     inkscape:window-x="157"
     inkscape:window-y="29"
     inkscape:window-maximized="0"
     showguides="true"
     inkscape:guide-bbox="true"
     inkscape:showpageshadow="2"
     inkscape:pagecheckerboard="0"
     inkscape:deskcolor="#d1d1d1" />
  <metadata
     id="metadata5">
    <rdf:RDF>
      <cc:Work
         rdf:about="">
        <dc:format>image/svg+xml</dc:format>
        <dc:type
           rdf:resource="http://purl.org/dc/dcmitype/StillImage" />
        <dc:title />
      </cc:Work>
    </rdf:RDF>
  </metadata>
  <g
     inkscape:label="Layer 1"
     inkscape:groupmode="layer"
     id="layer1"
     transform="translate(-166.97542,-29.641482)">
    <path
       style="opacity:1;fill:#58170d;fill-opacity:1;stroke:none;stroke-width:0.6797;stroke-linecap:round;stroke-linejoin:round;stroke-miterlimit:4;stroke-dasharray:none;stroke-dashoffset:254.835;stroke-opacity:1;paint-order:normal"
       d="m 269.44877,29.641482 c -0.1863,0 -0.3739,0.05643 -0.5169,0.169227 l -5.0108,3.950839 c -0.2864,0.225624 -0.2864,0.589014 0,0.814637 l 5.0108,3.950837 c 0.2862,0.225627 0.7476,0.225627 1.0337,0 l 5.0108,-3.950837 c 0.2865,-0.225623 0.2865,-0.589013 0,-0.814637 l -5.0108,-3.950839 c -0.1423,-0.112816 -0.3302,-0.169227 -0.5168,-0.169227 z m -93.6999,2.152339 c -0.2853,0 -0.5695,0.02946 -0.7882,0.08864 l -7.6572,2.073219 c -0.4374,0.118387 -0.4374,0.308718 0,0.427096 l 7.6572,2.073223 c 0.4374,0.118373 1.1406,0.118373 1.5779,0 l 7.6574,-2.073223 c 0.4372,-0.118385 0.4372,-0.308715 0,-0.427096 l -7.6574,-2.073219 c -0.2191,-0.05919 -0.5043,-0.08864 -0.7897,-0.08864 z m 188.0783,0 c -0.2853,0 -0.5695,0.02946 -0.7882,0.08864 l -7.6573,2.073219 c -0.4372,0.118387 -0.4372,0.308718 0,0.427096 l 7.6573,2.073223 c 0.4373,0.118373 1.1405,0.118373 1.5779,0 l 7.6575,-2.073223 c 0.4371,-0.118385 0.4371,-0.308715 0,-0.427096 l -7.6575,-2.073219 c -0.2192,-0.05919 -0.5045,-0.08864 -0.7897,-0.08864 z m -132.7525,0.887162 a 3.2204593,1.4878256 0 0 0 -3.2208,1.487884 3.2204593,1.4878256 0 0 0 3.2208,1.487885 3.2204593,1.4878256 0 0 0 3.2203,-1.487885 3.2204593,1.4878256 0 0 0 -3.2203,-1.487884 z m 77.4286,0 a 3.2204593,1.4878256 0 0 0 -3.2207,1.487884 3.2204593,1.4878256 0 0 0 3.2207,1.487885 3.2204593,1.4878256 0 0 0 3.2205,-1.487885 3.2204593,1.4878256 0 0 0 -3.2205,-1.487884 z m -120.3762,0.779474 a 1.5349712,0.70914403 0 1 0 0,1.418287 h 36.7392 a 1.5349712,0.70914403 0 1 0 0,-1.418287 z m 49.0062,0 a 1.5349712,0.70914403 0 1 0 0,1.418287 h 22.7868 a 1.5349712,0.70914403 0 1 0 0,-1.418287 z m 41.7979,0 a 1.5349712,0.70914403 0 1 0 0,1.418287 h 22.785 a 1.5349712,0.70914403 0 1 0 0,-1.418287 z m 35.7801,0 a 1.5349712,0.70914403 0 1 0 0,1.418287 h 36.7442 a 1.5349712,0.70914403 0 1 0 0,-1.418287 z"
       id="rect1311"
       inkscape:connector-curvature="0" />
  </g>
</svg>
