<?xml version="1.0" encoding="UTF-8" standalone="no"?>
<svg
   viewBox="0 0 16.883959 17.728546"
   version="1.1"
   id="svg2"
   sodipodi:docname="cone.svg"
   width="16.883959"
   height="17.728546"
   inkscape:version="1.4.2 (ebf0e940, 2025-05-08)"
   xmlns:inkscape="http://www.inkscape.org/namespaces/inkscape"
   xmlns:sodipodi="http://sodipodi.sourceforge.net/DTD/sodipodi-0.dtd"
   xmlns="http://www.w3.org/2000/svg"
   xmlns:svg="http://www.w3.org/2000/svg"
   xmlns:rdf="http://www.w3.org/1999/02/22-rdf-syntax-ns#"
   xmlns:cc="http://creativecommons.org/ns#"
   xmlns:dc="http://purl.org/dc/elements/1.1/">
  <sodipodi:namedview
     id="namedview2"
     pagecolor="#ffffff"
     bordercolor="#000000"
     borderopacity="0.25"
     inkscape:showpageshadow="2"
     inkscape:pageopacity="0.0"
     inkscape:pagecheckerboard="0"
     inkscape:deskcolor="#d1d1d1"
     inkscape:zoom="49.731023"
     inkscape:cx="8.4755947"
     inkscape:cy="8.8777582"
     inkscape:window-width="1624"
     inkscape:window-height="1346"
     inkscape:window-x="1055"
     inkscape:window-y="45"
     inkscape:window-maximized="0"
     inkscape:current-layer="Layer_1-2" />
  <defs
     id="defs1">
    <style
       id="style1">.cls-1{fill:#231f20;}</style>
  </defs>
  <title
     id="title1">Asset 1</title>
  <g
     id="Layer_2"
     data-name="Layer 2"
     style="stroke-width:1;stroke-dasharray:none"
     transform="translate(0.09395941,0.13851989)">
    <g
       id="Layer_1-2"
       data-name="Layer 1"
       style="stroke-width:1;stroke-dasharray:none">
      <path
         class="cls-1"
         d="m 14,17.49 c -1.85,0 -2.69,-4.53 -2.69,-8.74 C 11.31,4.54 12.18,0 14,0 c 1.82,0 2.69,4.53 2.69,8.74 0,4.21 -0.81,8.75 -2.69,8.75 z M 14,1 c -0.51,0 -1.69,2.63 -1.69,7.74 0,5.11 1.19,7.74 1.69,7.74 0.5,0 1.69,-2.63 1.69,-7.74 C 15.69,3.63 14.54,1 14,1 Z"
         id="path1"
         style="stroke:#000000;stroke-width:0.2;stroke-dasharray:none;stroke-opacity:1;paint-order:stroke markers fill" />
      <path
         class="cls-1"
         d="M 14,17.49 A 0.5,0.5 0 0 1 13.74,17.42 L 0.24,9.17 a 0.5,0.5 0 0 1 0,-0.85 L 13.77,0.07 a 0.5,0.5 0 1 1 0.52,0.85 L 1.46,8.74 14.29,16.56 a 0.5,0.5 0 0 1 -0.26,0.93 z"
         id="path2"
         style="stroke:#000000;stroke-width:0.2;stroke-dasharray:none;stroke-opacity:1" />
    </g>
  </g>
  <metadata
     id="metadata2">
    <rdf:RDF>
      <cc:Work
         rdf:about="">
        <dc:title>Asset 1</dc:title>
      </cc:Work>
    </rdf:RDF>
  </metadata>
</svg>
