<?xml version="1.0" encoding="UTF-8" standalone="no"?>
<svg
   viewBox="0 0 17.680016 18.510001"
   version="1.1"
   id="svg2"
   sodipodi:docname="cylinder.svg"
   inkscape:version="1.4.2 (ebf0e940, 2025-05-08)"
   width="17.680016"
   height="18.51"
   xmlns:inkscape="http://www.inkscape.org/namespaces/inkscape"
   xmlns:sodipodi="http://sodipodi.sourceforge.net/DTD/sodipodi-0.dtd"
   xmlns="http://www.w3.org/2000/svg"
   xmlns:svg="http://www.w3.org/2000/svg"
   xmlns:rdf="http://www.w3.org/1999/02/22-rdf-syntax-ns#"
   xmlns:cc="http://creativecommons.org/ns#"
   xmlns:dc="http://purl.org/dc/elements/1.1/">
  <sodipodi:namedview
     id="namedview2"
     pagecolor="#ffffff"
     bordercolor="#000000"
     borderopacity="0.25"
     inkscape:showpageshadow="2"
     inkscape:pageopacity="0.0"
     inkscape:pagecheckerboard="0"
     inkscape:deskcolor="#d1d1d1"
     inkscape:zoom="47.570041"
     inkscape:cx="8.8395972"
     inkscape:cy="9.2600299"
     inkscape:window-width="1624"
     inkscape:window-height="1342"
     inkscape:window-x="1231"
     inkscape:window-y="71"
     inkscape:window-maximized="0"
     inkscape:current-layer="svg2" />
  <defs
     id="defs1">
    <style
       id="style1">.cls-1{fill:#231f20;}</style>
  </defs>
  <title
     id="title1">Asset 5</title>
  <g
     id="Layer_2"
     data-name="Layer 2"
     style="fill:#000000;fill-opacity:1;stroke:#000000;stroke-width:0.2;stroke-dasharray:none;stroke-opacity:1"
     transform="translate(0.1,0.1)">
    <g
       id="Layer_1-2"
       data-name="Layer 1"
       style="fill:#000000;fill-opacity:1;stroke:#000000;stroke-width:0.2;stroke-dasharray:none;stroke-opacity:1">
      <path
         class="cls-1"
         d="M 8.74,5.38 C 4.53,5.38 0,4.54 0,2.69 0,0.84 4.53,0 8.74,0 c 4.21,0 8.74,0.84 8.74,2.69 0,1.85 -4.48,2.69 -8.74,2.69 z M 8.74,1 C 3.63,1 1,2.19 1,2.69 c 0,0.5 2.63,1.69 7.74,1.69 5.11,0 7.74,-1.19 7.74,-1.69 C 16.48,2.19 13.85,1 8.74,1 Z"
         id="path1"
         style="fill:#000000;fill-opacity:1;stroke:#000000;stroke-width:0.2;stroke-dasharray:none;stroke-opacity:1" />
      <path
         class="cls-1"
         d="M 8.74,18.31 C 4.53,18.31 0,17.47 0,15.62 V 2.69 a 0.5,0.5 0 0 1 1,0 v 12.93 c 0,0.51 2.63,1.69 7.74,1.69 5.11,0 7.74,-1.19 7.74,-1.69 V 2.69 a 0.5,0.5 0 0 1 1,0 v 12.93 c 0.01,1.85 -4.48,2.69 -8.74,2.69 z"
         id="path2"
         style="fill:#000000;fill-opacity:1;stroke:#000000;stroke-width:0.2;stroke-dasharray:none;stroke-opacity:1" />
    </g>
  </g>
  <metadata
     id="metadata2">
    <rdf:RDF>
      <cc:Work
         rdf:about="">
        <dc:title>Asset 5</dc:title>
      </cc:Work>
    </rdf:RDF>
  </metadata>
</svg>
