<?xml version="1.0" encoding="UTF-8" standalone="no"?>
<svg
   viewBox="0 0 17.523 17.523001"
   version="1.1"
   id="svg2"
   sodipodi:docname="line.svg"
   width="17.523001"
   height="17.523001"
   inkscape:version="1.4.2 (ebf0e940, 2025-05-08)"
   xmlns:inkscape="http://www.inkscape.org/namespaces/inkscape"
   xmlns:sodipodi="http://sodipodi.sourceforge.net/DTD/sodipodi-0.dtd"
   xmlns="http://www.w3.org/2000/svg"
   xmlns:svg="http://www.w3.org/2000/svg"
   xmlns:rdf="http://www.w3.org/1999/02/22-rdf-syntax-ns#"
   xmlns:cc="http://creativecommons.org/ns#"
   xmlns:dc="http://purl.org/dc/elements/1.1/">
  <sodipodi:namedview
     id="namedview2"
     pagecolor="#ffffff"
     bordercolor="#000000"
     borderopacity="0.25"
     inkscape:showpageshadow="2"
     inkscape:pageopacity="0.0"
     inkscape:pagecheckerboard="0"
     inkscape:deskcolor="#d1d1d1"
     inkscape:clip-to-page="false"
     inkscape:zoom="47.570041"
     inkscape:rotation="1"
     inkscape:cx="8.8067656"
     inkscape:cy="7.6780289"
     inkscape:window-width="1792"
     inkscape:window-height="1240"
     inkscape:window-x="686"
     inkscape:window-y="33"
     inkscape:window-maximized="0"
     inkscape:current-layer="svg2" />
  <defs
     id="defs1">
    <style
       id="style1">.cls-1{fill:#231f20;}</style>
  </defs>
  <title
     id="title1">Asset 6</title>
  <g
     id="Layer_2"
     data-name="Layer 2"
     transform="translate(0.01173284,5.4831997)">
    <g
       id="Layer_1-2"
       data-name="Layer 1">
      <path
         class="cls-1"
         d="M 14,5.44 H 0.5 A 0.5,0.5 0 0 1 0,4.94 V 2 A 0.5,0.5 0 0 1 0.5,1.5 H 14 a 0.5,0.5 0 0 1 0,1 H 1 v 2 h 13 a 0.5,0.5 0 0 1 0,1 z"
         id="path1" />
      <path
         class="cls-1"
         d="m 14,7.1 a 0.49,0.49 0 0 1 -0.18,0 0.5,0.5 0 0 1 -0.32,-0.46 v -1.7 a 0.5,0.5 0 0 1 1,0 v 0.4 L 16.26,3.47 14.53,1.71 v 0.17 a 0.5,0.5 0 0 1 -1,0 V 0.5 a 0.5,0.5 0 0 1 0.85,-0.35 l 3,3 a 0.5,0.5 0 0 1 0,0.7 L 14.38,7 A 0.5,0.5 0 0 1 14,7.1 Z"
         id="path2" />
    </g>
  </g>
  <metadata
     id="metadata2">
    <rdf:RDF>
      <cc:Work
         rdf:about="">
        <dc:title>Asset 6</dc:title>
      </cc:Work>
    </rdf:RDF>
  </metadata>
</svg>
