<?xml version="1.0" encoding="UTF-8" standalone="no"?>
<svg
   viewBox="0 0 15.25 15.25"
   version="1.1"
   id="svg1"
   sodipodi:docname="sphere_alt.svg"
   width="15.25"
   height="15.25"
   inkscape:version="1.4.2 (ebf0e940, 2025-05-08)"
   xmlns:inkscape="http://www.inkscape.org/namespaces/inkscape"
   xmlns:sodipodi="http://sodipodi.sourceforge.net/DTD/sodipodi-0.dtd"
   xmlns="http://www.w3.org/2000/svg"
   xmlns:svg="http://www.w3.org/2000/svg">
  <sodipodi:namedview
     id="namedview1"
     pagecolor="#ffffff"
     bordercolor="#000000"
     borderopacity="0.25"
     inkscape:showpageshadow="2"
     inkscape:pageopacity="0.0"
     inkscape:pagecheckerboard="0"
     inkscape:deskcolor="#d1d1d1"
     showgrid="false"
     showguides="true"
     inkscape:zoom="80.952383"
     inkscape:cx="8.7520586"
     inkscape:cy="8.3876468"
     inkscape:window-width="2960"
     inkscape:window-height="1639"
     inkscape:window-x="49"
     inkscape:window-y="25"
     inkscape:window-maximized="1"
     inkscape:current-layer="g4" />
  <defs
     id="defs1">
    <style
       id="style1">.cls-1{fill:#231f20;}</style>
  </defs>
  <title
     id="title1">Asset 3</title>
  <g
     fill="none"
     stroke="currentColor"
     stroke-width="1.25"
     stroke-linecap="round"
     stroke-linejoin="round"
     id="g4"
     transform="translate(-1.375,-1.375)">
    <!-- Outer sphere -->
    <circle
       cx="9"
       cy="9"
       r="7.25"
       id="circle1"
       style="stroke-width:0.75;stroke-dasharray:none" />
    <!-- Vertical meridian -->
    <path
       d="m 9,1.75 c 2.5,2 3.75,4.75 3.75,7.25 0,2.5 -1.25,5.5 -3.75,7.25 M 9,1.75 C 6.5,3.75 5.25,6.5 5.25,9 c 0,2.5 1.25,5.5 3.75,7.25"
       id="path1"
       style="stroke-width:0.75;stroke-dasharray:none" />
    <!-- Equator -->
    <path
       d="m 1.75,9 h 14.5"
       id="path2"
       style="stroke-width:0.75;stroke-dasharray:none" />
    <!-- Latitudes (north/south) -->
    <path
       d="M 2.4910356,6.2307291 C 4.3730045,5.4553958 6.7682375,5.0192709 9.0494118,5.0192709 c 2.2811742,0 4.6764072,0.4361249 6.5583762,1.2114582"
       id="path3"
       style="stroke-width:0.788542;stroke-dasharray:none" />
    <path
       d="m 15.570866,11.769134 c -1.880236,0.775508 -4.273263,1.211732 -6.5523366,1.211732 -2.2790736,0 -4.6721009,-0.436224 -6.5523366,-1.211732"
       id="path4"
       style="stroke-width:0.788268;stroke-dasharray:none" />
  </g>
</svg>
